<svg width="282" height="17" viewBox="0 0 282 17" fill="none" xmlns="http://www.w3.org/2000/svg">
<path d="M1.31227 16.52C1.18027 16.52 1.06627 16.478 0.970266 16.394C0.886266 16.31 0.844266 16.202 0.844266 16.07V11.57C0.844266 11.438 0.886266 11.33 0.970266 11.246C1.06627 11.162 1.18027 11.12 1.31227 11.12H1.63627C2.17627 11.12 2.56027 10.628 2.78827 9.644C3.02827 8.66 3.14827 7.28 3.14827 5.504V1.85C3.14827 1.718 3.19027 1.61 3.27427 1.526C3.37027 1.442 3.47827 1.4 3.59827 1.4H12.0583C12.1903 1.4 12.2983 1.442 12.3823 1.526C12.4663 1.61 12.5083 1.718 12.5083 1.85V11.12H13.3543C13.4863 11.12 13.5943 11.162 13.6783 11.246C13.7743 11.33 13.8223 11.438 13.8223 11.57V16.07C13.8223 16.202 13.7743 16.31 13.6783 16.394C13.5943 16.478 13.4863 16.52 13.3543 16.52H11.0323C10.9123 16.52 10.8043 16.478 10.7083 16.394C10.6243 16.31 10.5823 16.202 10.5823 16.07V14H4.08427V16.07C4.08427 16.202 4.04227 16.31 3.95827 16.394C3.87427 16.478 3.76627 16.52 3.63427 16.52H1.31227ZM9.28627 11.12V4.28H6.28027V5.918C6.28027 8.354 6.00427 10.088 5.45227 11.12H9.28627ZM19.8923 14.18C18.4043 14.18 17.2583 13.826 16.4543 13.118C15.6503 12.41 15.2123 11.414 15.1403 10.13C15.1283 9.974 15.1223 9.704 15.1223 9.32C15.1223 8.936 15.1283 8.666 15.1403 8.51C15.2123 7.238 15.6623 6.248 16.4903 5.54C17.3183 4.82 18.4523 4.46 19.8923 4.46C21.3443 4.46 22.4843 4.82 23.3123 5.54C24.1403 6.248 24.5903 7.238 24.6623 8.51C24.6743 8.666 24.6803 8.936 24.6803 9.32C24.6803 9.704 24.6743 9.974 24.6623 10.13C24.5903 11.414 24.1523 12.41 23.3483 13.118C22.5443 13.826 21.3923 14.18 19.8923 14.18ZM19.8923 11.984C20.4203 11.984 20.8103 11.828 21.0623 11.516C21.3143 11.192 21.4583 10.7 21.4943 10.04C21.5063 9.92 21.5123 9.68 21.5123 9.32C21.5123 8.96 21.5063 8.72 21.4943 8.6C21.4583 7.952 21.3083 7.466 21.0443 7.142C20.7923 6.818 20.4083 6.656 19.8923 6.656C18.8963 6.656 18.3683 7.304 18.3083 8.6L18.2903 9.32L18.3083 10.04C18.3323 10.7 18.4703 11.192 18.7223 11.516C18.9863 11.828 19.3763 11.984 19.8923 11.984ZM30.7703 14.18C29.4143 14.18 28.3163 13.82 27.4763 13.1C26.6363 12.368 26.1863 11.354 26.1263 10.058L26.1083 9.338L26.1263 8.6C26.1743 7.304 26.6183 6.29 27.4583 5.558C28.3103 4.826 29.4143 4.46 30.7703 4.46C31.7903 4.46 32.6483 4.646 33.3443 5.018C34.0523 5.378 34.5742 5.816 34.9102 6.332C35.2583 6.836 35.4443 7.298 35.4683 7.718C35.4803 7.838 35.4383 7.946 35.3423 8.042C35.2583 8.126 35.1503 8.168 35.0183 8.168H32.7323C32.6003 8.168 32.4983 8.138 32.4263 8.078C32.3543 8.018 32.2883 7.928 32.2283 7.808C32.0843 7.436 31.8983 7.172 31.6703 7.016C31.4543 6.86 31.1723 6.782 30.8243 6.782C29.8403 6.782 29.3303 7.418 29.2943 8.69L29.2763 9.374L29.2943 9.968C29.3183 10.616 29.4563 11.096 29.7083 11.408C29.9723 11.708 30.3443 11.858 30.8243 11.858C31.1963 11.858 31.4903 11.78 31.7063 11.624C31.9223 11.468 32.0963 11.204 32.2283 10.832C32.2883 10.712 32.3543 10.622 32.4263 10.562C32.4983 10.502 32.6003 10.472 32.7323 10.472H35.0183C35.1383 10.472 35.2403 10.514 35.3242 10.598C35.4203 10.67 35.4683 10.766 35.4683 10.886C35.4683 11.27 35.3003 11.72 34.9643 12.236C34.6403 12.752 34.1243 13.208 33.4163 13.604C32.7083 13.988 31.8263 14.18 30.7703 14.18ZM39.9114 14C39.7914 14 39.6834 13.958 39.5874 13.874C39.5034 13.778 39.4614 13.67 39.4614 13.55V6.998H36.7254C36.6054 6.998 36.4974 6.956 36.4014 6.872C36.3174 6.776 36.2754 6.668 36.2754 6.548V5.09C36.2754 4.958 36.3174 4.85 36.4014 4.766C36.4974 4.682 36.6054 4.64 36.7254 4.64H45.1854C45.3174 4.64 45.4254 4.682 45.5094 4.766C45.5934 4.85 45.6354 4.958 45.6354 5.09V6.548C45.6354 6.668 45.5934 6.776 45.5094 6.872C45.4254 6.956 45.3174 6.998 45.1854 6.998H42.4494V13.55C42.4494 13.67 42.4074 13.778 42.3234 13.874C42.2394 13.958 42.1314 14 41.9994 14H39.9114ZM49.7548 14.18C49.1188 14.18 48.5368 14.06 48.0088 13.82C47.4928 13.568 47.0848 13.232 46.7848 12.812C46.4968 12.38 46.3528 11.906 46.3528 11.39C46.3528 10.562 46.6888 9.896 47.3608 9.392C48.0448 8.888 48.9808 8.54 50.1688 8.348L52.4188 8.006V7.754C52.4188 7.298 52.3228 6.962 52.1308 6.746C51.9388 6.53 51.6148 6.422 51.1588 6.422C50.8828 6.422 50.6548 6.47 50.4748 6.566C50.2948 6.662 50.1088 6.794 49.9168 6.962C49.7488 7.106 49.6228 7.202 49.5388 7.25C49.5028 7.346 49.4368 7.394 49.3408 7.394H47.3788C47.2588 7.394 47.1568 7.358 47.0728 7.286C47.0008 7.202 46.9708 7.106 46.9828 6.998C46.9948 6.674 47.1508 6.314 47.4508 5.918C47.7628 5.522 48.2308 5.18 48.8548 4.892C49.4908 4.604 50.2708 4.46 51.1948 4.46C52.6708 4.46 53.7628 4.79 54.4708 5.45C55.1788 6.098 55.5328 6.974 55.5328 8.078V13.55C55.5328 13.67 55.4908 13.778 55.4068 13.874C55.3228 13.958 55.2148 14 55.0828 14H52.9948C52.8748 14 52.7668 13.958 52.6708 13.874C52.5868 13.778 52.5448 13.67 52.5448 13.55V12.92C52.2808 13.292 51.9088 13.598 51.4288 13.838C50.9608 14.066 50.4028 14.18 49.7548 14.18ZM50.6008 12.128C51.1528 12.128 51.5968 11.948 51.9328 11.588C52.2808 11.228 52.4548 10.7 52.4548 10.004V9.752L50.9248 10.022C49.8448 10.214 49.3048 10.592 49.3048 11.156C49.3048 11.456 49.4308 11.696 49.6828 11.876C49.9348 12.044 50.2408 12.128 50.6008 12.128ZM58.014 14C57.882 14 57.774 13.958 57.69 13.874C57.606 13.79 57.564 13.682 57.564 13.55V5.09C57.564 4.958 57.606 4.85 57.69 4.766C57.774 4.682 57.882 4.64 58.014 4.64H62.226C63.606 4.64 64.632 4.874 65.304 5.342C65.988 5.81 66.33 6.464 66.33 7.304C66.33 7.736 66.246 8.102 66.078 8.402C65.91 8.69 65.664 8.936 65.34 9.14C65.736 9.344 66.048 9.626 66.276 9.986C66.504 10.346 66.618 10.76 66.618 11.228C66.618 12.116 66.276 12.8 65.592 13.28C64.908 13.76 63.876 14 62.496 14H58.014ZM62.28 8.294C62.664 8.294 62.964 8.222 63.18 8.078C63.396 7.922 63.504 7.694 63.504 7.394C63.504 6.842 63.096 6.566 62.28 6.566H60.48V8.294H62.28ZM62.316 12.074C63.144 12.074 63.558 11.78 63.558 11.192C63.558 10.88 63.456 10.658 63.252 10.526C63.048 10.382 62.736 10.31 62.316 10.31H60.48V12.074H62.316ZM77.912 13.406C77.96 13.454 77.984 13.532 77.984 13.64C77.984 13.736 77.948 13.82 77.876 13.892C77.804 13.964 77.708 14 77.588 14H75.05C74.834 14 74.66 13.904 74.528 13.712L72.422 10.436H71.468V13.55C71.468 13.682 71.42 13.79 71.324 13.874C71.24 13.958 71.132 14 71 14H68.93C68.798 14 68.69 13.958 68.606 13.874C68.522 13.79 68.48 13.682 68.48 13.55V5.09C68.48 4.958 68.522 4.85 68.606 4.766C68.69 4.682 68.798 4.64 68.93 4.64H71C71.132 4.64 71.24 4.682 71.324 4.766C71.42 4.85 71.468 4.958 71.468 5.09V8.078H72.458L74.384 4.928C74.516 4.736 74.684 4.64 74.888 4.64H77.192C77.3 4.64 77.39 4.676 77.462 4.748C77.546 4.82 77.588 4.904 77.588 5C77.588 5.084 77.558 5.168 77.498 5.252L75.05 9.176L77.912 13.406ZM82.204 14.18C81.568 14.18 80.986 14.06 80.458 13.82C79.942 13.568 79.534 13.232 79.234 12.812C78.946 12.38 78.802 11.906 78.802 11.39C78.802 10.562 79.138 9.896 79.81 9.392C80.494 8.888 81.43 8.54 82.618 8.348L84.868 8.006V7.754C84.868 7.298 84.772 6.962 84.58 6.746C84.388 6.53 84.064 6.422 83.608 6.422C83.332 6.422 83.104 6.47 82.924 6.566C82.744 6.662 82.558 6.794 82.366 6.962C82.198 7.106 82.072 7.202 81.988 7.25C81.952 7.346 81.886 7.394 81.79 7.394H79.828C79.708 7.394 79.606 7.358 79.522 7.286C79.45 7.202 79.42 7.106 79.432 6.998C79.444 6.674 79.6 6.314 79.9 5.918C80.212 5.522 80.68 5.18 81.304 4.892C81.94 4.604 82.72 4.46 83.644 4.46C85.12 4.46 86.212 4.79 86.92 5.45C87.628 6.098 87.982 6.974 87.982 8.078V13.55C87.982 13.67 87.94 13.778 87.856 13.874C87.772 13.958 87.664 14 87.532 14H85.444C85.324 14 85.216 13.958 85.12 13.874C85.036 13.778 84.994 13.67 84.994 13.55V12.92C84.73 13.292 84.358 13.598 83.878 13.838C83.41 14.066 82.852 14.18 82.204 14.18ZM83.05 12.128C83.602 12.128 84.046 11.948 84.382 11.588C84.73 11.228 84.904 10.7 84.904 10.004V9.752L83.374 10.022C82.294 10.214 81.754 10.592 81.754 11.156C81.754 11.456 81.88 11.696 82.132 11.876C82.384 12.044 82.69 12.128 83.05 12.128ZM103.097 9.104C103.121 9.392 103.133 9.614 103.133 9.77C103.133 9.926 103.121 10.136 103.097 10.4C103.025 11.6 102.587 12.53 101.783 13.19C100.979 13.85 99.8332 14.18 98.3452 14.18C96.7372 14.18 95.5552 13.796 94.7992 13.028C94.0552 12.248 93.6472 11.018 93.5752 9.338L93.5572 8.24L93.5752 7.16C93.6232 5.504 93.8992 4.256 94.4032 3.416C94.9072 2.576 95.6572 1.946 96.6532 1.526C97.6612 1.106 99.2392 0.655999 101.387 0.176C101.423 0.163999 101.459 0.157999 101.495 0.157999C101.591 0.157999 101.675 0.181999 101.747 0.229999C101.855 0.301999 101.915 0.403999 101.927 0.536L102.233 2.192L102.251 2.3C102.251 2.408 102.215 2.498 102.143 2.57C102.083 2.642 102.005 2.69 101.909 2.714C100.301 3.038 99.1732 3.302 98.5252 3.506C97.8772 3.71 97.3912 4.016 97.0672 4.424C96.7432 4.82 96.5512 5.438 96.4912 6.278C96.7672 5.99 97.1152 5.762 97.5352 5.594C97.9672 5.414 98.4232 5.324 98.9032 5.324C100.211 5.324 101.219 5.654 101.927 6.314C102.635 6.974 103.025 7.904 103.097 9.104ZM99.9292 10.328C99.9412 10.232 99.9472 10.046 99.9472 9.77C99.9472 9.482 99.9412 9.284 99.9292 9.176C99.8692 7.94 99.3772 7.322 98.4532 7.322C97.3732 7.322 96.8032 7.94 96.7432 9.176L96.7252 9.77L96.7432 10.328C96.7672 10.952 96.9052 11.42 97.1572 11.732C97.4212 12.032 97.8172 12.182 98.3452 12.182C98.8612 12.182 99.2452 12.032 99.4972 11.732C99.7612 11.42 99.9052 10.952 99.9292 10.328ZM109.222 14.18C107.782 14.18 106.648 13.79 105.82 13.01C104.992 12.23 104.56 11.096 104.524 9.608V8.978C104.572 7.562 105.01 6.458 105.838 5.666C106.678 4.862 107.8 4.46 109.204 4.46C110.224 4.46 111.082 4.67 111.778 5.09C112.486 5.498 113.014 6.062 113.362 6.782C113.722 7.502 113.902 8.33 113.902 9.266V9.698C113.902 9.818 113.86 9.926 113.776 10.022C113.692 10.106 113.584 10.148 113.452 10.148H107.692V10.274C107.716 10.838 107.854 11.294 108.106 11.642C108.358 11.99 108.724 12.164 109.204 12.164C109.504 12.164 109.75 12.104 109.942 11.984C110.134 11.852 110.308 11.696 110.464 11.516C110.572 11.384 110.656 11.306 110.716 11.282C110.788 11.246 110.896 11.228 111.04 11.228H113.272C113.38 11.228 113.47 11.264 113.542 11.336C113.626 11.396 113.668 11.48 113.668 11.588C113.668 11.9 113.488 12.26 113.128 12.668C112.78 13.076 112.27 13.43 111.598 13.73C110.926 14.03 110.134 14.18 109.222 14.18ZM110.734 8.366V8.33C110.734 7.742 110.596 7.28 110.32 6.944C110.056 6.596 109.684 6.422 109.204 6.422C108.736 6.422 108.364 6.596 108.088 6.944C107.824 7.28 107.692 7.742 107.692 8.33V8.366H110.734ZM119.891 14.18C118.535 14.18 117.437 13.82 116.597 13.1C115.757 12.368 115.307 11.354 115.247 10.058L115.229 9.338L115.247 8.6C115.295 7.304 115.739 6.29 116.579 5.558C117.431 4.826 118.535 4.46 119.891 4.46C120.911 4.46 121.769 4.646 122.465 5.018C123.173 5.378 123.695 5.816 124.031 6.332C124.379 6.836 124.565 7.298 124.589 7.718C124.601 7.838 124.559 7.946 124.463 8.042C124.379 8.126 124.271 8.168 124.139 8.168H121.853C121.721 8.168 121.619 8.138 121.547 8.078C121.475 8.018 121.409 7.928 121.349 7.808C121.205 7.436 121.019 7.172 120.791 7.016C120.575 6.86 120.293 6.782 119.945 6.782C118.961 6.782 118.451 7.418 118.415 8.69L118.397 9.374L118.415 9.968C118.439 10.616 118.577 11.096 118.829 11.408C119.093 11.708 119.465 11.858 119.945 11.858C120.317 11.858 120.611 11.78 120.827 11.624C121.043 11.468 121.217 11.204 121.349 10.832C121.409 10.712 121.475 10.622 121.547 10.562C121.619 10.502 121.721 10.472 121.853 10.472H124.139C124.259 10.472 124.361 10.514 124.445 10.598C124.541 10.67 124.589 10.766 124.589 10.886C124.589 11.27 124.421 11.72 124.085 12.236C123.761 12.752 123.245 13.208 122.537 13.604C121.829 13.988 120.947 14.18 119.891 14.18ZM126.657 14C126.525 14 126.417 13.958 126.333 13.874C126.249 13.79 126.207 13.682 126.207 13.55V5.09C126.207 4.958 126.249 4.85 126.333 4.766C126.417 4.682 126.525 4.64 126.657 4.64H134.901C135.033 4.64 135.141 4.682 135.225 4.766C135.321 4.85 135.369 4.958 135.369 5.09V13.55C135.369 13.682 135.321 13.79 135.225 13.874C135.141 13.958 135.033 14 134.901 14H132.777C132.657 14 132.549 13.958 132.453 13.874C132.369 13.778 132.327 13.67 132.327 13.55V6.998H129.231V13.55C129.231 13.67 129.189 13.778 129.105 13.874C129.021 13.958 128.913 14 128.781 14H126.657ZM137.4 14C137.268 14 137.154 13.958 137.058 13.874C136.974 13.778 136.932 13.664 136.932 13.532V11.966C136.932 11.846 136.968 11.75 137.04 11.678C137.124 11.594 137.232 11.54 137.364 11.516C137.712 11.48 137.976 11.324 138.156 11.048C138.336 10.76 138.462 10.346 138.534 9.806C138.606 9.266 138.642 8.54 138.642 7.628V5.09C138.642 4.958 138.684 4.85 138.768 4.766C138.864 4.682 138.972 4.64 139.092 4.64H146.148C146.28 4.64 146.388 4.682 146.472 4.766C146.568 4.85 146.616 4.958 146.616 5.09V13.55C146.616 13.682 146.568 13.79 146.472 13.874C146.388 13.958 146.28 14 146.148 14H144.024C143.904 14 143.796 13.958 143.7 13.874C143.616 13.778 143.574 13.67 143.574 13.55V6.998H141.522V7.952C141.522 9.524 141.402 10.742 141.162 11.606C140.922 12.458 140.508 13.07 139.92 13.442C139.344 13.814 138.504 14 137.4 14ZM151.602 14.18C150.966 14.18 150.384 14.06 149.856 13.82C149.34 13.568 148.932 13.232 148.632 12.812C148.344 12.38 148.2 11.906 148.2 11.39C148.2 10.562 148.536 9.896 149.208 9.392C149.892 8.888 150.828 8.54 152.016 8.348L154.266 8.006V7.754C154.266 7.298 154.17 6.962 153.978 6.746C153.786 6.53 153.462 6.422 153.006 6.422C152.73 6.422 152.502 6.47 152.322 6.566C152.142 6.662 151.956 6.794 151.764 6.962C151.596 7.106 151.47 7.202 151.386 7.25C151.35 7.346 151.284 7.394 151.188 7.394H149.226C149.106 7.394 149.004 7.358 148.92 7.286C148.848 7.202 148.818 7.106 148.83 6.998C148.842 6.674 148.998 6.314 149.298 5.918C149.61 5.522 150.078 5.18 150.702 4.892C151.338 4.604 152.118 4.46 153.042 4.46C154.518 4.46 155.61 4.79 156.318 5.45C157.026 6.098 157.38 6.974 157.38 8.078V13.55C157.38 13.67 157.338 13.778 157.254 13.874C157.17 13.958 157.062 14 156.93 14H154.842C154.722 14 154.614 13.958 154.518 13.874C154.434 13.778 154.392 13.67 154.392 13.55V12.92C154.128 13.292 153.756 13.598 153.276 13.838C152.808 14.066 152.25 14.18 151.602 14.18ZM152.448 12.128C153 12.128 153.444 11.948 153.78 11.588C154.128 11.228 154.302 10.7 154.302 10.004V9.752L152.772 10.022C151.692 10.214 151.152 10.592 151.152 11.156C151.152 11.456 151.278 11.696 151.53 11.876C151.782 12.044 152.088 12.128 152.448 12.128ZM162.238 14C162.118 14 162.01 13.958 161.914 13.874C161.83 13.778 161.788 13.67 161.788 13.55V6.998H159.052C158.932 6.998 158.824 6.956 158.728 6.872C158.644 6.776 158.602 6.668 158.602 6.548V5.09C158.602 4.958 158.644 4.85 158.728 4.766C158.824 4.682 158.932 4.64 159.052 4.64H167.512C167.644 4.64 167.752 4.682 167.836 4.766C167.92 4.85 167.962 4.958 167.962 5.09V6.548C167.962 6.668 167.92 6.776 167.836 6.872C167.752 6.956 167.644 6.998 167.512 6.998H164.776V13.55C164.776 13.67 164.734 13.778 164.65 13.874C164.566 13.958 164.458 14 164.326 14H162.238ZM169.723 14C169.591 14 169.483 13.958 169.399 13.874C169.315 13.79 169.273 13.682 169.273 13.55V5.09C169.273 4.958 169.315 4.85 169.399 4.766C169.483 4.682 169.591 4.64 169.723 4.64H171.847C171.979 4.64 172.087 4.682 172.171 4.766C172.255 4.85 172.297 4.958 172.297 5.09V8.078H175.537V5.09C175.537 4.958 175.579 4.85 175.663 4.766C175.747 4.682 175.855 4.64 175.987 4.64H178.111C178.243 4.64 178.351 4.682 178.435 4.766C178.519 4.85 178.561 4.958 178.561 5.09V13.55C178.561 13.67 178.519 13.778 178.435 13.874C178.351 13.958 178.243 14 178.111 14H175.987C175.855 14 175.747 13.958 175.663 13.874C175.579 13.79 175.537 13.682 175.537 13.55V10.436H172.297V13.55C172.297 13.67 172.255 13.778 172.171 13.874C172.087 13.958 171.979 14 171.847 14H169.723ZM185.179 14.18C183.691 14.18 182.545 13.826 181.741 13.118C180.937 12.41 180.499 11.414 180.427 10.13C180.415 9.974 180.409 9.704 180.409 9.32C180.409 8.936 180.415 8.666 180.427 8.51C180.499 7.238 180.949 6.248 181.777 5.54C182.605 4.82 183.739 4.46 185.179 4.46C186.631 4.46 187.771 4.82 188.599 5.54C189.427 6.248 189.877 7.238 189.949 8.51C189.961 8.666 189.967 8.936 189.967 9.32C189.967 9.704 189.961 9.974 189.949 10.13C189.877 11.414 189.439 12.41 188.635 13.118C187.831 13.826 186.679 14.18 185.179 14.18ZM185.179 11.984C185.707 11.984 186.097 11.828 186.349 11.516C186.601 11.192 186.745 10.7 186.781 10.04C186.793 9.92 186.799 9.68 186.799 9.32C186.799 8.96 186.793 8.72 186.781 8.6C186.745 7.952 186.595 7.466 186.331 7.142C186.079 6.818 185.695 6.656 185.179 6.656C184.183 6.656 183.655 7.304 183.595 8.6L183.577 9.32L183.595 10.04C183.619 10.7 183.757 11.192 184.009 11.516C184.273 11.828 184.663 11.984 185.179 11.984ZM200.015 14.18C198.527 14.18 197.381 13.826 196.577 13.118C195.773 12.41 195.335 11.414 195.263 10.13C195.251 9.974 195.245 9.704 195.245 9.32C195.245 8.936 195.251 8.666 195.263 8.51C195.335 7.238 195.785 6.248 196.613 5.54C197.441 4.82 198.575 4.46 200.015 4.46C201.467 4.46 202.607 4.82 203.435 5.54C204.263 6.248 204.713 7.238 204.785 8.51C204.797 8.666 204.803 8.936 204.803 9.32C204.803 9.704 204.797 9.974 204.785 10.13C204.713 11.414 204.275 12.41 203.471 13.118C202.667 13.826 201.515 14.18 200.015 14.18ZM200.015 11.984C200.543 11.984 200.933 11.828 201.185 11.516C201.437 11.192 201.581 10.7 201.617 10.04C201.629 9.92 201.635 9.68 201.635 9.32C201.635 8.96 201.629 8.72 201.617 8.6C201.581 7.952 201.431 7.466 201.167 7.142C200.915 6.818 200.531 6.656 200.015 6.656C199.019 6.656 198.491 7.304 198.431 8.6L198.413 9.32L198.431 10.04C198.455 10.7 198.593 11.192 198.845 11.516C199.109 11.828 199.499 11.984 200.015 11.984ZM209.417 14C209.297 14 209.189 13.958 209.093 13.874C209.009 13.778 208.967 13.67 208.967 13.55V6.998H206.231C206.111 6.998 206.003 6.956 205.907 6.872C205.823 6.776 205.781 6.668 205.781 6.548V5.09C205.781 4.958 205.823 4.85 205.907 4.766C206.003 4.682 206.111 4.64 206.231 4.64H214.691C214.823 4.64 214.931 4.682 215.015 4.766C215.099 4.85 215.141 4.958 215.141 5.09V6.548C215.141 6.668 215.099 6.776 215.015 6.872C214.931 6.956 214.823 6.998 214.691 6.998H211.955V13.55C211.955 13.67 211.913 13.778 211.829 13.874C211.745 13.958 211.637 14 211.505 14H209.417ZM224.209 14C224.089 14 223.981 13.958 223.885 13.874C223.801 13.778 223.759 13.67 223.759 13.55V4.982L221.293 6.872C221.209 6.944 221.119 6.98 221.023 6.98C220.891 6.98 220.771 6.908 220.663 6.764L219.601 5.378C219.541 5.282 219.511 5.192 219.511 5.108C219.511 4.94 219.583 4.814 219.727 4.73L223.867 1.526C223.999 1.442 224.143 1.4 224.299 1.4H226.549C226.681 1.4 226.789 1.442 226.873 1.526C226.957 1.61 226.999 1.718 226.999 1.85V13.55C226.999 13.67 226.957 13.778 226.873 13.874C226.789 13.958 226.681 14 226.549 14H224.209ZM234.272 14.18C232.616 14.168 231.362 13.73 230.51 12.866C229.658 11.99 229.196 10.844 229.124 9.428C229.1 8.78 229.088 8.204 229.088 7.7C229.088 7.184 229.1 6.59 229.124 5.918C229.172 5.018 229.388 4.22 229.772 3.524C230.168 2.816 230.744 2.258 231.5 1.85C232.256 1.43 233.18 1.22 234.272 1.22C235.892 1.232 237.14 1.67 238.016 2.534C238.892 3.398 239.366 4.526 239.438 5.918C239.462 6.59 239.474 7.184 239.474 7.7C239.474 8.204 239.462 8.78 239.438 9.428C239.354 10.844 238.886 11.99 238.034 12.866C237.182 13.73 235.928 14.168 234.272 14.18ZM234.272 11.57C234.86 11.57 235.298 11.378 235.586 10.994C235.886 10.598 236.048 10.046 236.072 9.338C236.096 8.99 236.108 8.432 236.108 7.664C236.108 6.896 236.096 6.35 236.072 6.026C236.048 5.342 235.892 4.802 235.604 4.406C235.316 4.01 234.872 3.806 234.272 3.794C233.684 3.806 233.24 4.01 232.94 4.406C232.652 4.802 232.496 5.342 232.472 6.026C232.46 6.35 232.454 6.896 232.454 7.664C232.454 8.432 232.46 8.99 232.472 9.338C232.532 10.826 233.132 11.57 234.272 11.57ZM246.506 14.18C244.85 14.168 243.596 13.73 242.744 12.866C241.892 11.99 241.43 10.844 241.358 9.428C241.334 8.78 241.322 8.204 241.322 7.7C241.322 7.184 241.334 6.59 241.358 5.918C241.406 5.018 241.622 4.22 242.006 3.524C242.402 2.816 242.978 2.258 243.734 1.85C244.49 1.43 245.414 1.22 246.506 1.22C248.126 1.232 249.374 1.67 250.25 2.534C251.126 3.398 251.6 4.526 251.672 5.918C251.696 6.59 251.708 7.184 251.708 7.7C251.708 8.204 251.696 8.78 251.672 9.428C251.588 10.844 251.12 11.99 250.268 12.866C249.416 13.73 248.162 14.168 246.506 14.18ZM246.506 11.57C247.094 11.57 247.532 11.378 247.82 10.994C248.12 10.598 248.282 10.046 248.306 9.338C248.33 8.99 248.342 8.432 248.342 7.664C248.342 6.896 248.33 6.35 248.306 6.026C248.282 5.342 248.126 4.802 247.838 4.406C247.55 4.01 247.106 3.806 246.506 3.794C245.918 3.806 245.474 4.01 245.174 4.406C244.886 4.802 244.73 5.342 244.706 6.026C244.694 6.35 244.688 6.896 244.688 7.664C244.688 8.432 244.694 8.99 244.706 9.338C244.766 10.826 245.366 11.57 246.506 11.57ZM258.741 14.18C257.085 14.168 255.831 13.73 254.979 12.866C254.127 11.99 253.665 10.844 253.593 9.428C253.569 8.78 253.557 8.204 253.557 7.7C253.557 7.184 253.569 6.59 253.593 5.918C253.641 5.018 253.857 4.22 254.241 3.524C254.637 2.816 255.213 2.258 255.969 1.85C256.725 1.43 257.649 1.22 258.741 1.22C260.361 1.232 261.609 1.67 262.485 2.534C263.361 3.398 263.835 4.526 263.907 5.918C263.931 6.59 263.943 7.184 263.943 7.7C263.943 8.204 263.931 8.78 263.907 9.428C263.823 10.844 263.355 11.99 262.503 12.866C261.651 13.73 260.397 14.168 258.741 14.18ZM258.741 11.57C259.329 11.57 259.767 11.378 260.055 10.994C260.355 10.598 260.517 10.046 260.541 9.338C260.565 8.99 260.577 8.432 260.577 7.664C260.577 6.896 260.565 6.35 260.541 6.026C260.517 5.342 260.361 4.802 260.073 4.406C259.785 4.01 259.341 3.806 258.741 3.794C258.153 3.806 257.709 4.01 257.409 4.406C257.121 4.802 256.965 5.342 256.941 6.026C256.929 6.35 256.923 6.896 256.923 7.664C256.923 8.432 256.929 8.99 256.941 9.338C257.001 10.826 257.601 11.57 258.741 11.57ZM271.225 14C271.093 14 270.979 13.958 270.883 13.874C270.799 13.79 270.757 13.682 270.757 13.55V11.894H269.425C269.305 11.894 269.197 11.852 269.101 11.768C269.017 11.672 268.975 11.564 268.975 11.444V10.76C268.975 10.628 269.017 10.52 269.101 10.436C269.185 10.352 269.293 10.31 269.425 10.31H270.757V9.392H269.425C269.305 9.392 269.197 9.35 269.101 9.266C269.017 9.17 268.975 9.062 268.975 8.942V7.574C268.975 7.442 269.017 7.334 269.101 7.25C269.197 7.166 269.305 7.124 269.425 7.124H270.757V1.85C270.757 1.718 270.799 1.61 270.883 1.526C270.979 1.442 271.093 1.4 271.225 1.4H276.265C277.801 1.4 279.007 1.754 279.883 2.462C280.759 3.158 281.197 4.19 281.197 5.558C281.197 6.83 280.759 7.79 279.883 8.438C279.019 9.074 277.813 9.392 276.265 9.392H274.123V10.31H276.535C276.667 10.31 276.775 10.352 276.859 10.436C276.943 10.52 276.985 10.628 276.985 10.76V11.444C276.985 11.564 276.943 11.672 276.859 11.768C276.775 11.852 276.667 11.894 276.535 11.894H274.123V13.55C274.123 13.682 274.075 13.79 273.979 13.874C273.895 13.958 273.787 14 273.655 14H271.225ZM276.175 7.124C276.703 7.124 277.111 6.992 277.399 6.728C277.699 6.452 277.849 6.05 277.849 5.522C277.849 5.03 277.711 4.64 277.435 4.352C277.159 4.052 276.739 3.902 276.175 3.902H274.051V7.124H276.175Z" fill="#414141"/>
</svg>
